	<svg width="250" viewBox="0 0 428 475" fill="none" xmlns="http://www.w3.org/2000/svg">
<path d="M12.0458 158.856L42.1358 3.2058L72.1648 3.70257L107.762 111.141L106.157 111.115L145.289 4.91228L175.318 5.40906L200.472 161.973L166.775 161.415L157.154 91.5515C155.933 82.2068 154.787 72.9397 153.716 63.7504C152.801 54.4107 152.038 45.0735 151.428 35.7389L160.827 35.8944C158.215 45.94 155.613 55.3744 153.021 64.1974C150.582 73.023 147.684 81.9174 144.325 90.8807L119.355 158.797L92.994 158.36L70.2842 89.6558C67.2267 80.4336 64.5475 71.4469 62.2465 62.6957C60.1008 53.7943 57.8888 44.2803 55.6106 34.1538L65.009 34.3093C64.0907 43.6186 63.0195 52.9254 61.7956 62.2297C60.5742 71.3811 59.1222 80.6052 57.4398 89.9019L45.5133 159.409L12.0458 158.856Z" fill="#454545"/>
<path d="M209.209 84.1582C209.404 72.3911 211.493 61.6489 215.475 51.9317C219.613 42.0642 225.332 33.5986 232.633 26.5349C239.937 19.3184 248.512 13.8044 258.358 9.99289C268.204 6.1814 279.088 4.37425 291.007 4.57144C302.622 4.76358 313.286 6.9272 323.001 11.0623C332.868 15.1999 341.333 20.9958 348.394 28.4499C355.458 35.7513 360.817 44.4002 364.474 54.3966C368.285 64.2428 370.094 75.0494 369.899 86.8165C369.704 98.5836 367.538 109.401 363.4 119.268C359.418 128.986 353.775 137.452 346.471 144.669C339.17 151.733 330.52 157.169 320.521 160.978C310.677 164.637 299.948 166.37 288.334 166.178C276.414 165.981 265.595 163.891 255.878 159.909C246.164 155.773 237.774 150.055 230.711 142.754C223.65 135.3 218.213 126.65 214.402 116.803C210.746 106.807 209.015 95.9252 209.209 84.1582ZM243.365 84.7232C243.205 94.3508 245.053 102.789 248.907 110.037C252.762 117.285 258.095 122.953 264.906 127.04C271.87 131.13 279.86 133.249 288.876 133.398C297.74 133.545 305.643 131.688 312.585 127.829C319.681 123.972 325.275 118.485 329.367 111.368C333.459 104.251 335.586 95.8026 335.748 86.0222C335.907 76.3946 334.059 67.9567 330.205 60.7084C326.35 53.4602 320.94 47.8677 313.973 43.9309C307.162 39.8439 299.325 37.727 290.461 37.5804C281.445 37.4312 273.389 39.2852 266.294 43.1422C259.351 47.0017 253.834 52.4899 249.742 59.6066C245.652 66.5706 243.526 74.9428 243.365 84.7232Z" fill="#454545"/>
<path d="M7.32875 192.046L163.434 194.629L162.531 249.185C162.263 265.384 158.9 279.239 152.442 290.75C146.135 302.415 137.046 311.284 125.175 317.355C113.455 323.581 99.4187 326.559 83.0671 326.288C66.5626 326.015 52.5563 322.574 41.0482 315.963C29.5376 309.505 20.8233 300.342 14.9052 288.474C8.98708 276.606 6.16201 262.573 6.43 246.374L7.32875 192.046ZM26.4888 225.84L39.3163 212.753L38.7892 244.616C38.635 253.938 40.0292 262.063 42.9718 268.99C46.0647 276.073 50.9416 281.58 57.6024 285.512C64.2607 289.596 72.9386 291.727 83.6359 291.904C94.1804 292.079 102.846 290.311 109.634 286.602C116.421 282.893 121.477 277.55 124.803 270.573C128.278 263.752 130.093 255.68 130.248 246.358L130.805 212.662L140.415 227.725L26.4888 225.84Z" fill="#454545"/>
<path d="M1.05032 405.241C1.27786 391.487 3.99151 379.915 9.19128 370.523C14.3885 361.285 21.9942 354.303 32.0084 349.577C42.1754 344.853 54.747 342.616 69.7233 342.863L160.956 344.373L160.403 377.84L68.4819 376.319C57.6317 376.14 49.1086 378.521 42.9124 383.463C36.8665 388.56 33.7626 395.999 33.6008 405.779C33.439 415.56 36.2964 423.021 42.1729 428.163C48.2022 433.307 56.642 435.969 67.4922 436.148L159.413 437.669L158.855 471.365L67.6224 469.856C52.6461 469.608 40.1554 466.956 30.1502 461.899C20.2979 456.844 12.9285 449.538 8.04225 439.98C3.15343 430.574 0.822793 418.995 1.05032 405.241Z" fill="#454545"/>
<path d="M288.905 472.403L194 471.112L196.124 315L229.593 315.455L227.737 451.852L219.427 439.129L289.345 440.08L288.905 472.403Z" fill="#454545"/>
<path d="M307.501 472.656L309.624 316.544L367.163 317.327C378.319 317.478 388.223 319.83 396.874 324.38C405.677 328.933 412.546 335.293 417.479 343.461C422.565 351.632 425.032 361.295 424.88 372.452C424.726 383.761 421.996 393.43 416.69 401.459C411.536 409.49 404.498 415.661 395.573 419.973C386.804 424.133 376.841 426.138 365.685 425.986L334.279 425.559L334.719 393.236L363.603 393.629C372.009 393.743 378.529 391.998 383.163 388.392C387.953 384.636 390.397 379.167 390.494 371.984C390.592 364.801 388.297 359.343 383.609 355.611C379.076 351.728 372.607 349.729 364.202 349.615L335.089 349.219L342.756 341.757L340.969 473.111L307.501 472.656ZM388.422 473.757L356.046 409.805L392.724 410.304L425.1 474.255L388.422 473.757Z" fill="#454545"/>
</svg>